<svg width="210" height="150" viewBox="0 0 3000 2160" fill="none" xmlns="http://www.w3.org/2000/svg">
<path d="M182.502 1746.87V1696.51H314.107V1746.87H278.695V1971.71H217.91V1746.87H182.502ZM466.584 1777.16V1899.13C466.584 1909.61 467.64 1916.3 469.739 1919.19C471.969 1921.94 475.893 1923.31 481.539 1923.31C487.301 1923.31 491.239 1921.81 493.338 1918.79C495.437 1915.78 496.493 1908.57 496.493 1897.16V1891.06V1771.06C496.493 1759.91 495.372 1752.83 493.142 1749.82C491.043 1746.81 487.171 1745.29 481.539 1745.29C475.763 1745.29 471.838 1746.68 469.739 1749.43C467.64 1752.18 466.584 1758.74 466.584 1769.1V1777.16ZM405.02 1785.23C405.02 1751.27 410.848 1727.39 422.529 1713.62C434.198 1699.86 453.872 1692.97 481.539 1692.97C509.205 1692.97 528.879 1699.86 540.548 1713.62C552.216 1727.39 558.058 1751.27 558.058 1785.23V1882.99C558.058 1916.96 552.216 1940.82 540.548 1954.59C528.879 1968.37 509.205 1975.25 481.539 1975.25C453.872 1975.25 434.198 1968.37 422.529 1954.59C410.848 1940.82 405.02 1916.96 405.02 1882.99V1785.23ZM841.747 1971.71V1762.61C831.134 1775.32 823.455 1788.7 818.735 1802.74C814.146 1816.64 811.851 1836.04 811.851 1860.97V1876.3V1971.71H751.46V1860.97C751.46 1836.04 749.1 1816.64 744.381 1802.74C739.791 1788.7 732.177 1775.32 721.565 1762.61V1971.71H660.769V1696.51H741.825C750.209 1705.95 757.758 1716.83 764.446 1729.17C771.134 1741.36 776.897 1754.8 781.747 1769.49C786.206 1755.19 791.786 1741.88 798.475 1729.56C805.294 1717.09 812.96 1706.08 821.486 1696.51H902.529V1971.71H841.747ZM1067.01 1777.16V1899.13C1067.01 1909.61 1068.07 1916.3 1070.17 1919.19C1072.4 1921.94 1076.32 1923.31 1081.97 1923.31C1087.74 1923.31 1091.67 1921.81 1093.77 1918.79C1095.87 1915.78 1096.92 1908.57 1096.92 1897.16V1891.06V1771.06C1096.92 1759.91 1095.8 1752.83 1093.57 1749.82C1091.47 1746.81 1087.6 1745.29 1081.97 1745.29C1076.19 1745.29 1072.27 1746.68 1070.17 1749.43C1068.07 1752.18 1067.01 1758.74 1067.01 1769.1V1777.16ZM1005.45 1785.23C1005.45 1751.27 1011.28 1727.39 1022.96 1713.62C1034.63 1699.86 1054.3 1692.97 1081.97 1692.97C1109.64 1692.97 1129.31 1699.86 1140.98 1713.62C1152.66 1727.39 1158.49 1751.27 1158.49 1785.23V1882.99C1158.49 1916.96 1152.66 1940.82 1140.98 1954.59C1129.31 1968.37 1109.64 1975.25 1081.97 1975.25C1054.3 1975.25 1034.63 1968.37 1022.96 1954.59C1011.28 1940.82 1005.45 1916.96 1005.45 1882.99V1785.23ZM1320.03 1800.97H1330.05C1339.36 1800.97 1345.59 1799.06 1348.75 1795.25C1351.89 1791.32 1353.47 1783.52 1353.47 1771.85C1353.47 1762.14 1351.83 1755.25 1348.54 1751.2C1345.27 1747 1339.83 1744.9 1332.22 1744.9H1320.03V1800.97ZM1261.2 1696.51H1342.65C1368.61 1696.51 1386.91 1702.67 1397.52 1714.99C1408.15 1727.2 1413.46 1748.7 1413.46 1779.52C1413.46 1794.08 1411.76 1806.14 1408.34 1815.71C1405.07 1825.29 1400.22 1831.79 1393.79 1835.19L1416.41 1971.71H1352.67L1336.94 1847.59H1321.99V1971.71H1261.2V1696.51ZM1571.85 1800.97H1581.88C1591.19 1800.97 1597.42 1799.06 1600.56 1795.25C1603.72 1791.32 1605.29 1783.52 1605.29 1771.85C1605.29 1762.14 1603.65 1755.25 1600.37 1751.2C1597.09 1747 1591.66 1744.9 1584.04 1744.9H1571.85V1800.97ZM1513.02 1696.51H1594.47C1620.43 1696.51 1638.74 1702.67 1649.35 1714.99C1659.97 1727.2 1665.28 1748.7 1665.28 1779.52C1665.28 1794.08 1663.59 1806.14 1660.17 1815.71C1656.9 1825.29 1652.03 1831.79 1645.62 1835.19L1668.24 1971.71H1604.5L1588.76 1847.59H1573.82V1971.71H1513.02V1696.51ZM1823.68 1777.16V1899.13C1823.68 1909.61 1824.72 1916.3 1826.82 1919.19C1829.05 1921.94 1832.99 1923.31 1838.62 1923.31C1844.39 1923.31 1848.33 1921.81 1850.43 1918.79C1852.52 1915.78 1853.57 1908.57 1853.57 1897.16V1891.06V1771.06C1853.57 1759.91 1852.45 1752.83 1850.22 1749.82C1848.12 1746.81 1844.26 1745.29 1838.62 1745.29C1832.86 1745.29 1828.92 1746.68 1826.82 1749.43C1824.72 1752.18 1823.68 1758.74 1823.68 1769.1V1777.16ZM1762.1 1785.23C1762.1 1751.27 1767.94 1727.39 1779.61 1713.62C1791.28 1699.86 1810.95 1692.97 1838.62 1692.97C1866.3 1692.97 1885.96 1699.86 1897.64 1713.62C1909.31 1727.39 1915.14 1751.27 1915.14 1785.23V1882.99C1915.14 1916.96 1909.31 1940.82 1897.64 1954.59C1885.96 1968.37 1866.3 1975.25 1838.62 1975.25C1810.95 1975.25 1791.28 1968.37 1779.61 1954.59C1767.94 1940.82 1762.1 1916.96 1762.1 1882.99V1785.23ZM2152.8 1971.71C2147.95 1961.49 2143.62 1951.58 2139.82 1942.01C2136.02 1932.3 2132.87 1922.86 2130.38 1913.68C2127.5 1923.52 2124.21 1933.22 2120.55 1942.79C2117 1952.36 2112.87 1962.01 2108.15 1971.71H2052.48C2037.26 1949.28 2026.25 1923.46 2019.43 1894.2C2012.74 1864.82 2009.4 1826.6 2009.4 1779.52V1696.51H2069.4V1775.58C2069.4 1816.9 2070.57 1847.46 2072.93 1867.25C2075.29 1886.92 2079.23 1904.17 2084.75 1919C2090.38 1904.3 2094.38 1886.92 2096.74 1866.86C2099.23 1846.66 2100.48 1816.25 2100.48 1775.58V1696.51H2160.08V1775.58C2160.08 1814.41 2161.26 1844.3 2163.62 1865.29C2166.11 1886.27 2170.18 1904.17 2175.82 1919C2181.46 1903.91 2185.46 1886.34 2187.82 1866.27C2190.31 1846.08 2191.55 1815.84 2191.55 1775.58V1696.51H2251.16V1779.52C2251.16 1826.6 2247.74 1864.82 2240.93 1894.2C2234.24 1923.46 2223.3 1949.28 2208.08 1971.71H2152.8ZM2504.98 1784.5C2504.98 1782.29 2506.77 1780.5 2508.98 1780.5H2557.84C2560.05 1780.5 2561.84 1782.29 2561.84 1784.5V1967.71C2561.84 1969.92 2560.05 1971.71 2557.84 1971.71H2508.98C2506.77 1971.71 2504.98 1969.92 2504.98 1967.71V1784.5ZM2508.98 1752.5C2506.77 1752.5 2504.98 1750.71 2504.98 1748.5V1700.51C2504.98 1698.3 2506.77 1696.51 2508.98 1696.51H2557.84C2560.05 1696.51 2561.84 1698.3 2561.84 1700.51V1748.5C2561.84 1750.71 2560.05 1752.5 2557.84 1752.5H2508.98ZM2759.75 1786.01V1770.27C2759.75 1761.75 2758.25 1755.45 2755.23 1751.4C2752.22 1747.33 2747.56 1745.29 2741.26 1745.29C2736.55 1745.29 2732.74 1746.68 2729.86 1749.43C2726.98 1752.05 2725.53 1755.66 2725.53 1760.25C2725.53 1768.89 2740.09 1784.77 2769.2 1807.85C2774.71 1812.18 2778.97 1815.52 2781.98 1817.88C2794.58 1827.72 2803.62 1838.67 2809.13 1850.73C2814.64 1862.66 2817.39 1877.61 2817.39 1895.58C2817.39 1922.2 2811.03 1942.14 2798.32 1955.39C2785.59 1968.63 2766.44 1975.25 2740.87 1975.25C2714.38 1975.25 2694.9 1968.89 2682.45 1956.17C2670.12 1943.31 2663.96 1923.12 2663.96 1895.58V1862.14H2725.53V1892.83C2725.53 1903.59 2726.78 1911.38 2729.27 1916.23C2731.89 1920.95 2736.02 1923.31 2741.66 1923.31C2746.25 1923.31 2749.79 1921.55 2752.28 1918.01C2754.9 1914.33 2756.22 1909.28 2756.22 1902.86C2756.22 1893.81 2754.25 1885.82 2750.31 1878.87C2746.51 1871.77 2738.38 1862.86 2725.92 1852.11C2723.82 1850.27 2720.74 1847.65 2716.68 1844.24C2681.8 1814.6 2664.35 1787.13 2664.35 1761.81C2664.35 1739.65 2670.91 1722.61 2684.03 1710.67C2697.26 1698.61 2716.09 1692.57 2740.48 1692.57C2767.37 1692.57 2786.57 1698.34 2798.12 1709.88C2809.66 1721.29 2815.42 1740.77 2815.42 1768.31V1786.01H2759.75Z" fill="#2587C4"/>
<path d="M2118.23 301.414L2123.88 306.24C2124.1 307.188 2124.9 308.356 2126.29 309.744C2174.04 357.716 2208.47 413.907 2229.58 478.318C2229.76 478.893 2229.72 479.514 2229.46 480.053C2229.2 480.593 2228.75 481.012 2228.2 481.226C2221.63 483.782 2217.71 487.429 2216.43 492.167C2209.29 495.23 2206.37 500.662 2207.67 508.463C2207.75 508.966 2207.96 509.439 2208.28 509.837C2208.59 510.236 2209.01 510.546 2209.48 510.739C2209.96 510.931 2210.47 510.999 2210.98 510.936C2211.49 510.873 2211.98 510.682 2212.4 510.38C2216.3 507.515 2217.3 503.813 2215.41 499.274C2214.37 496.762 2215.03 494.988 2217.39 493.952L2232.06 491.704C2232.58 491.635 2233.11 491.785 2233.55 492.126C2234 492.467 2234.33 492.976 2234.48 493.555L2236.39 500.563C2241.59 527.821 2244.62 544.579 2245.48 550.837C2246.45 558.043 2243.93 562.164 2237.91 563.199C2237.87 563.199 2235.07 563.111 2229.52 562.935C2223.13 562.759 2217.87 565.315 2213.75 570.603C2213.43 571.012 2213.04 571.352 2212.58 571.599C2212.13 571.846 2211.63 571.994 2211.13 572.035C2210.62 572.076 2210.11 572.007 2209.64 571.835C2209.17 571.662 2208.75 571.389 2208.4 571.033L2194.68 556.853C2193.87 555.996 2192.94 555.437 2192.04 555.267C2170.84 551.344 2150.98 554.616 2132.47 565.083C2129.92 566.538 2127.77 569.469 2126.03 573.876C2125.87 574.28 2125.56 574.607 2125.16 574.791C2124.76 574.975 2124.3 575.002 2123.88 574.867C2120.11 573.677 2115.47 573.105 2109.96 573.149C2103.77 573.215 2100.21 575.528 2099.29 580.09C2098.76 582.558 2099.68 585.94 2102.06 590.237C2106.63 598.479 2108.97 606.996 2109.1 615.788C2109.19 620.944 2111.88 623.544 2117.17 623.588L2190.12 624.316C2190.62 624.326 2191.12 624.448 2191.59 624.676C2192.06 624.903 2192.5 625.231 2192.86 625.638C2203.44 637.559 2216.13 646.175 2230.94 651.486C2231.36 651.639 2231.81 651.689 2232.26 651.631C2232.71 651.573 2233.13 651.41 2233.5 651.154C2233.87 650.898 2234.17 650.558 2234.38 650.161C2234.59 649.765 2234.7 649.323 2234.71 648.875C2234.8 644.6 2235.02 640.655 2235.37 637.041C2235.39 636.799 2235.41 635.51 2235.44 633.174C2235.5 628.524 2238.34 625.428 2243.96 623.886C2244.47 623.742 2245.01 623.723 2245.53 623.831C2246.04 623.94 2246.53 624.172 2246.94 624.509C2247.35 624.846 2247.68 625.277 2247.89 625.767C2248.1 626.257 2248.2 626.791 2248.16 627.324C2246.4 652.246 2243.35 676.056 2239.01 698.753C2223.78 757.764 2201.54 813.989 2172.3 867.425C2162.19 885.869 2151.71 904.104 2140.87 922.129C2139.75 924.002 2138.63 924.586 2137.53 923.881C2137.21 923.668 2136.95 923.291 2136.77 922.79C2136.59 922.289 2136.5 921.684 2136.51 921.038C2136.59 916.609 2134.78 915.937 2131.05 919.022C2128.76 920.917 2126.41 922.735 2124.01 924.476L2030.87 925.368C2029.68 925.39 2028.61 925.701 2027.79 926.261L2016.52 933.962C2011.89 937.114 2007.72 936.739 2003.99 932.839C2000.4 929.026 1996.81 927.98 1993.22 929.698C1990.99 930.734 1988.45 932.739 1985.58 935.714C1980.47 941.025 1980.55 947.217 1985.81 954.29C1989.56 959.337 1991.49 964.581 1991.6 970.024C1991.61 970.508 1991.75 970.979 1992.02 971.383C1992.28 971.786 1992.65 972.106 1993.09 972.305C2005.29 977.725 2015.89 985.438 2024.88 995.442C2025.08 995.661 2025.33 995.833 2025.6 995.944C2025.88 996.055 2026.17 996.103 2026.47 996.084C2026.76 996.065 2027.04 995.979 2027.29 995.834C2027.55 995.688 2027.76 995.486 2027.92 995.244L2040.88 975.974C2043.97 971.368 2046.04 971.853 2047.1 977.428L2051.89 1002.68C2051.93 1002.89 2052.02 1003.09 2052.15 1003.26C2052.27 1003.43 2052.44 1003.57 2052.63 1003.67C2052.82 1003.76 2053.03 1003.81 2053.24 1003.81C2053.44 1003.82 2053.65 1003.77 2053.84 1003.67L2074.66 993.294C2075.2 993.022 2075.68 992.625 2076.08 992.126C2076.48 991.626 2076.8 991.035 2077.01 990.385C2082.21 973.99 2092.14 966.399 2106.79 967.611C2109.74 967.853 2110.37 969.187 2108.67 971.61C2094.86 991.244 2081.05 1011.09 2067.26 1031.14C2062.41 1038.19 2055.83 1037.91 2047.53 1030.28C2046.86 1029.68 2046 1029.34 2045.11 1029.33C2044.22 1029.32 2043.36 1029.65 2042.7 1030.25C2035.23 1037.01 2026.48 1036.57 2016.45 1028.93C2016.11 1028.66 2015.7 1028.48 2015.27 1028.4C2014.83 1028.32 2014.39 1028.35 2013.97 1028.48C2013.54 1028.61 2013.16 1028.83 2012.84 1029.14C2012.52 1029.45 2012.27 1029.83 2012.12 1030.25C2006.77 1045.92 2011.5 1057.78 2026.3 1065.85C2029.9 1067.81 2034.3 1066.57 2039.53 1062.14C2045.15 1057.34 2045.95 1057.92 2041.94 1063.9C2030.06 1081.52 2017.23 1098.43 2003.43 1114.6C2003.08 1115.01 2002.65 1115.33 2002.18 1115.56C2001.7 1115.79 2001.2 1115.91 2000.69 1115.92C1993.37 1116.05 1992.24 1113.22 1997.28 1107.43C2000.66 1103.59 2001.64 1099.2 2000.23 1094.24C2000.03 1093.53 1999.67 1092.88 1999.19 1092.33C1998.7 1091.78 1998.1 1091.34 1997.42 1091.06C1996.74 1090.77 1996.01 1090.64 1995.28 1090.68C1994.55 1090.71 1993.83 1090.91 1993.19 1091.26C1986.75 1094.77 1981.67 1099.52 1977.95 1105.51C1975.28 1109.81 1968.14 1114.53 1956.53 1119.69C1953.07 1121.21 1952.15 1122.86 1953.79 1124.65C1954.56 1125.49 1955.8 1126.07 1957.52 1126.4C1966.67 1128.16 1975.91 1128.3 1985.25 1126.8C1992.04 1125.7 1993.27 1127.82 1988.95 1133.18C1974.23 1151.36 1958.26 1170.23 1941.03 1189.8C1940.87 1189.97 1940.07 1190.98 1938.61 1192.81C1935.22 1197.08 1930.91 1199.04 1925.69 1198.69C1915.99 1198.05 1909.93 1197.7 1907.51 1197.63C1900.83 1197.46 1894.86 1195.01 1889.6 1190.29C1886.29 1187.36 1882.75 1187.04 1878.98 1189.33C1873.28 1192.82 1868.77 1196.85 1865.47 1201.43C1865.2 1201.81 1865.08 1202.27 1865.13 1202.74C1865.17 1203.21 1865.37 1203.66 1865.7 1204.01C1871.12 1209.81 1873.67 1216.85 1873.37 1225.13C1872.95 1236.39 1877.22 1238.49 1886.19 1231.41C1886.78 1230.95 1887.5 1230.68 1888.24 1230.64C1888.99 1230.59 1889.73 1230.78 1890.36 1231.18C1896.48 1234.93 1898.11 1237.9 1895.25 1240.11C1893.48 1241.47 1892.54 1242.22 1892.4 1242.35C1837.16 1298.94 1780.29 1346.15 1721.78 1383.99C1656.97 1425.92 1590.18 1453.61 1521.41 1467.05C1462 1478.64 1399.59 1477.06 1334.16 1462.29C1280.72 1448.23 1232.54 1428.89 1189.62 1404.25C1129.06 1369.48 1071.49 1325.68 1016.91 1272.86C960.985 1218.72 909.267 1160.79 861.758 1099.07C826.942 1053.8 793.811 1007.35 762.366 959.711C755.777 949.707 752.417 939.02 752.284 927.649C752.152 915.419 756.637 906.054 765.737 899.554C769.638 896.777 773.615 895.896 777.67 896.909C782.055 898.011 785.801 900.457 788.908 904.247C792.257 908.324 795.816 913.855 799.584 920.84C819.483 957.552 843.513 992.864 871.674 1026.78C871.873 1027 874.704 1030.52 880.169 1037.35C886.714 1045.51 893.986 1052.98 901.985 1059.76C909.697 1066.29 918.467 1068.89 928.295 1067.57C929.425 1067.42 930.432 1066.91 931.138 1066.14C934.641 1062.4 934.531 1058.71 930.807 1055.07C928.582 1052.89 927.403 1051.72 927.271 1051.57C887.011 1005.4 850.806 956.252 818.656 904.115C814.58 897.504 808.366 886.134 800.014 870.004C790.715 852.066 785.559 834.923 784.545 818.572C784.082 810.948 786.032 804.447 790.395 799.07C793.304 795.479 796.598 793.374 800.278 792.757C804.708 792.008 808.806 793.473 812.574 797.153C817.18 801.671 820.684 806.959 823.085 813.019C827.955 825.381 833.585 837.38 839.976 849.014C864.391 893.549 891.65 936.287 921.751 977.23C930.212 988.732 939.522 999.508 949.681 1009.56C957.151 1016.96 966.472 1022 977.644 1024.66C985.511 1026.56 988.706 1023.53 987.23 1015.57C986.459 1011.39 984.189 1007.43 980.421 1003.71C976.058 999.387 973.81 997.15 973.678 996.996C960.479 981.879 946.387 963.512 931.402 941.895C900.222 896.942 873.47 853.378 851.148 811.201C841.188 792.382 835.778 775.834 834.919 761.554C834.39 752.63 836.042 744.917 839.877 738.417C842.984 733.15 847.281 730.627 852.768 730.848C856.448 731.002 860.139 732.423 863.841 735.112C867.432 737.734 870.121 740.83 871.906 744.4C897.842 796.823 926.731 845.301 958.572 889.836C972.124 908.809 980.983 920.939 985.148 926.228C994.447 938.083 1004.59 949.2 1015.59 959.579C1019.78 963.545 1023.77 966.432 1027.56 968.239C1033.17 970.883 1038.1 971.952 1042.33 971.445C1051.03 970.388 1052.62 966.322 1047.09 959.248C1020.98 925.952 996.738 887.941 974.372 845.213C959.564 816.963 948.844 792.107 942.211 770.644C938.619 759.34 938.718 748.432 942.508 737.921C944.315 732.853 946.783 729.514 949.912 727.906C954.099 725.746 958.859 726.407 964.191 729.889C969.105 733.128 973.061 737.271 976.058 742.317C1015.3 808.05 1059.58 871.623 1108.9 933.037C1120.14 947.03 1132.66 957.078 1146.45 963.182C1155.44 967.17 1162.81 966.719 1168.56 961.827C1173.3 957.816 1175.42 951.977 1174.91 944.308C1174.45 937.125 1172.3 930.282 1168.46 923.782C1160.44 910.186 1152.17 896.744 1143.64 883.456C1131.59 864.704 1124.19 844.244 1121.46 822.076C1119.94 809.78 1123.66 800.646 1132.63 794.674C1133.07 794.384 1133.56 794.192 1134.08 794.112C1134.6 794.032 1135.13 794.066 1135.64 794.212C1147.32 797.583 1157.32 804.26 1165.65 814.242C1175.08 825.502 1182.63 835.848 1188.3 845.279C1224.63 905.79 1272.93 954.412 1333.2 991.145C1400.72 1031.38 1473.69 1055.6 1552.12 1063.8C1591.23 1067.87 1630.36 1067.85 1669.49 1063.73C1670.37 1063.64 1671.2 1063.71 1671.97 1063.93C1673.34 1064.33 1673.29 1064.69 1671.84 1065.02L1651.01 1069.58C1650.54 1069.69 1650.1 1069.89 1649.71 1070.19C1649.32 1070.48 1648.99 1070.85 1648.75 1071.28C1648.51 1071.7 1648.36 1072.18 1648.3 1072.67C1648.25 1073.16 1648.29 1073.67 1648.44 1074.14L1651.21 1083.46C1652.27 1087.01 1653.85 1087.31 1655.94 1084.36C1660.54 1077.83 1665.63 1077.94 1671.21 1084.69C1671.42 1084.94 1671.68 1085.15 1671.97 1085.29C1672.26 1085.44 1672.58 1085.52 1672.91 1085.54C1673.23 1085.55 1673.56 1085.5 1673.87 1085.38C1674.17 1085.26 1674.45 1085.08 1674.68 1084.85C1680.54 1079.03 1687.64 1076.42 1695.97 1077.02C1701.87 1077.44 1707.61 1076.78 1713.19 1075.04C1713.73 1074.87 1714.22 1074.61 1714.63 1074.26C1715.04 1073.92 1715.36 1073.51 1715.57 1073.05C1716.87 1070.1 1717.1 1066.44 1716.26 1062.08C1716.14 1061.44 1716.15 1060.78 1716.31 1060.15C1716.47 1059.51 1716.76 1058.92 1717.17 1058.41C1717.58 1057.91 1718.09 1057.5 1718.68 1057.21C1719.27 1056.92 1719.91 1056.77 1720.56 1056.76C1722.32 1056.71 1724.32 1056.05 1726.54 1054.77C1734.78 1053.91 1747.24 1051.27 1763.92 1046.84C1821 1031.75 1873.93 1007.24 1922.71 973.329C1923.5 972.778 1924.46 972.519 1925.43 972.597C1926.39 972.676 1927.3 973.086 1928 973.759C1932.52 978.144 1936.63 978.111 1940.33 973.66C1947.14 965.463 1953.42 956.902 1959.17 947.977C1963.43 941.322 1968.17 935.406 1973.42 930.227C1989 914.824 2003.73 897.78 2017.61 879.093C2019.09 877.132 2021.08 875.457 2023.59 874.069C2024.56 873.533 2025.3 872.743 2025.71 871.821C2030.69 860.231 2034.88 852.188 2038.27 847.692C2047.04 836.079 2050.84 823.277 2049.67 809.284C2049.28 804.59 2048.07 800.514 2046.04 797.054C2043.5 792.779 2040.36 789.694 2036.62 787.799C2029.63 784.229 2022.99 785.43 2016.69 791.402C2013.58 794.333 2009.9 798.916 2005.65 805.152C1993.88 822.362 1978.96 839.66 1960.89 857.047C1949.1 868.395 1937.27 880.261 1925.39 892.645C1923.78 892.755 1922.23 893.637 1920.73 895.29C1910.44 902.782 1899.9 909.91 1889.1 916.675C1881.19 921.633 1871.35 924.74 1859.58 925.996C1847.59 927.275 1844.63 923.209 1850.69 913.8C1853.45 909.547 1859.75 903.674 1869.6 896.182C1880 888.293 1886.79 883.016 1889.96 880.349C1921.8 853.642 1952.29 825.458 1981.42 795.798C2000.39 776.495 2014.66 759.362 2024.22 744.4C2031.76 732.633 2036.76 719.863 2039.23 706.09C2040.62 698.29 2039.87 691.47 2036.98 685.63C2033.74 679.086 2028.62 676.838 2021.61 678.887C2015.09 680.804 2009.87 684.484 2005.94 689.927C1977.3 729.636 1945.4 766.546 1910.25 800.657C1902.63 808.039 1886.91 822.891 1863.09 845.213C1849.73 857.752 1835.64 866.753 1820.81 872.218C1817.39 873.474 1814.38 873.926 1811.75 873.573C1806.11 872.78 1804.25 869.662 1806.17 864.219C1807.09 861.597 1809.18 858.655 1812.41 855.394C1845.49 822.186 1878.52 788.934 1911.51 755.638C1932.02 734.946 1951.69 713.494 1970.51 691.282C1983.2 676.276 1990.55 667.274 1992.56 664.278C1999.52 653.744 2003.67 642.649 2005.02 630.992C2006.23 620.481 2002.64 613.783 1994.24 610.896C1989.97 609.419 1985.59 609.508 1981.12 611.16C1976.8 612.769 1972.97 615.292 1969.62 618.73C1963.78 624.723 1958.24 630.959 1952.99 637.438C1942.92 649.822 1937.65 656.29 1937.19 656.84C1908.74 689.916 1879.12 721.89 1848.31 752.762C1827.55 773.586 1807.28 791.876 1787.49 807.631C1780.77 812.964 1773.07 816.148 1764.39 817.184C1759.5 817.757 1755.46 817.151 1752.29 815.366C1746.67 812.193 1746.25 807.113 1751.03 800.128C1754.16 795.567 1759.15 790.355 1766.01 784.494C1772.77 778.698 1789.43 761.753 1815.98 733.657C1844.34 703.666 1867.91 674.359 1886.69 645.734C1896.01 631.543 1901.02 616.989 1901.73 602.071C1902.28 590.788 1897.99 584.53 1888.87 583.296C1884.02 582.635 1879.3 583.935 1874.72 587.196C1870.51 590.215 1866.89 593.873 1863.85 598.17C1859.86 603.855 1857.82 606.753 1857.73 606.863C1821.15 652.83 1780.22 694.555 1734.94 732.038C1727.31 738.34 1716.32 746.317 1701.95 755.968C1686.46 766.391 1671.06 773.101 1655.74 776.098C1647.98 777.641 1641.21 776.561 1635.41 772.859C1631.84 770.589 1630.22 767.339 1630.55 763.108C1631.19 755.197 1633.59 748.476 1637.76 742.945C1645.54 732.655 1654.07 723.025 1663.34 714.056C1679.85 698.102 1693.41 679.989 1704.03 659.716C1708.9 650.395 1711.12 640.975 1710.68 631.455C1710.46 626.497 1709.11 622.652 1706.64 619.919C1703.32 616.217 1698.93 614.95 1693.49 616.118C1682.07 618.586 1670.85 624.712 1659.81 634.496C1652.18 641.261 1639.15 653.943 1620.7 672.541C1604.93 688.429 1591.51 700.637 1580.44 709.164C1479.19 787.259 1363.14 813.933 1232.29 789.187C1138.02 771.338 1052.89 733.305 976.884 675.086C938.211 645.448 903.351 610.025 872.302 568.819C838.433 523.822 816.144 474.56 805.435 421.036C798.714 387.475 800.587 354.609 811.054 322.437C811.227 321.935 811.56 321.505 812.002 321.212C812.445 320.92 812.971 320.781 813.5 320.817C827.999 322.029 832.109 316.828 825.829 305.216C825.598 304.793 825.25 304.439 824.82 304.189C824.391 303.94 823.895 303.803 823.383 303.794L815.913 303.629L815.781 302.109C819.483 301.029 822.215 298.484 823.978 294.473C826.644 288.369 830.71 282.75 836.175 277.616C836.5 277.306 836.93 277.123 837.394 277.099C837.858 277.075 838.326 277.211 838.72 277.484C844.383 281.538 849.727 281.968 854.751 278.773C861.009 274.806 864.204 272.801 864.336 272.757C871.432 270.509 875.564 273.198 876.731 280.822C877.282 284.414 877.602 288.689 877.69 293.647C877.8 301.8 875.266 309.083 870.088 315.495C869.785 315.866 869.621 316.328 869.627 316.791C869.633 317.255 869.809 317.687 870.121 318.007C875.387 323.406 880.841 323.384 886.482 317.941C886.834 317.6 887.105 317.171 887.277 316.685C887.448 316.199 887.515 315.669 887.474 315.132C886.24 300.368 886.35 291.069 887.804 287.234C888.774 284.7 890.173 282.992 892.002 282.111C892.932 281.671 893.671 280.911 894.084 279.97C894.497 279.028 894.556 277.969 894.25 276.988C890.151 263.678 883.717 252.616 874.947 243.802C874.623 243.47 874.433 243.032 874.414 242.573C874.396 242.114 874.55 241.668 874.847 241.323C883.794 231.23 895.704 229.996 910.579 237.621C911.359 238.02 912.243 238.174 913.116 238.062C913.988 237.95 914.809 237.577 915.47 236.993C919.988 233.026 923.646 227.672 926.444 220.929C928.868 215.067 932.24 211.233 936.559 209.426H937.385C942.057 213.899 945.461 219.177 947.599 225.259C948.326 227.286 949.141 228.619 950.044 229.258C952.116 230.691 953.802 229.236 955.102 224.895C955.741 222.736 956.226 220.543 956.556 218.317C957.746 210.318 962.23 208.732 970.009 213.558C975.32 216.841 980.994 221.832 987.032 228.531C987.521 229.063 988.114 229.487 988.774 229.778C989.434 230.068 990.146 230.217 990.866 230.217C1003.14 230.217 1014.79 230.173 1025.8 230.085C1029.97 230.063 1032.17 227.903 1032.41 223.606C1032.44 223.159 1032.57 222.726 1032.81 222.344C1033.04 221.963 1033.37 221.645 1033.75 221.419C1034.14 221.193 1034.57 221.066 1035.02 221.05C1035.47 221.034 1035.91 221.128 1036.31 221.325C1040.66 223.419 1043.32 224.939 1044.31 225.887C1048.61 229.853 1051.75 229.093 1053.73 223.606C1056.89 214.858 1060.79 208.412 1065.43 204.27C1068.41 201.625 1072.66 200.513 1078.19 200.931C1106.55 203.069 1134.22 208.721 1161.19 217.888C1162.36 218.284 1162.49 218.846 1161.59 219.574C1160.4 220.521 1159.14 220.973 1157.82 220.929C1150.88 220.62 1145.09 222.328 1140.47 226.052C1140.36 226.162 1139.38 227.231 1137.52 229.258C1134.59 232.52 1130.25 233.148 1124.5 231.142C1120.67 229.798 1117.26 230.514 1114.29 233.291C1110.5 236.861 1106.07 241.345 1101 246.744C1096.75 251.283 1092.18 252.208 1087.28 249.52C1087.24 249.476 1085.5 248.022 1082.06 245.157C1078.8 242.447 1074.98 241.18 1070.59 241.356C1068.37 241.444 1066.06 241.345 1063.68 241.058C1060.53 240.662 1058.16 241.246 1056.58 242.81C1052.17 247.217 1047.21 252.175 1041.7 257.684C1041.38 258.009 1040.99 258.254 1040.56 258.399C1040.13 258.543 1039.68 258.583 1039.23 258.515C1038.78 258.447 1038.36 258.273 1038 258.008C1037.63 257.743 1037.34 257.394 1037.14 256.99L1032.12 246.711C1031.87 246.2 1031.53 245.739 1031.12 245.354C1030.71 244.97 1030.24 244.671 1029.74 244.473C1029.23 244.276 1028.71 244.186 1028.19 244.206C1027.68 244.227 1027.18 244.359 1026.73 244.595L1007.29 254.875C1006.89 255.082 1006.51 255.412 1006.19 255.845C1005.86 256.277 1005.6 256.802 1005.41 257.387C1002.83 265.518 1004.19 273.748 1009.48 282.078C1014.41 289.835 1016.55 297.889 1015.89 306.24C1015.69 308.664 1016.32 310.085 1017.77 310.504C1018.18 310.618 1018.64 310.545 1019.08 310.299C1019.51 310.052 1019.89 309.646 1020.15 309.149C1026.08 297.977 1031.85 286.728 1037.47 275.401C1039.5 271.347 1041 271.17 1041.97 274.872C1042.19 275.71 1042.31 276.8 1042.33 278.145C1042.48 285.505 1043.53 292.776 1045.47 299.96C1045.52 300.153 1045.62 300.331 1045.75 300.48C1045.89 300.63 1046.05 300.746 1046.24 300.819C1046.42 300.893 1046.63 300.923 1046.83 300.905C1047.02 300.888 1047.22 300.825 1047.39 300.72C1051.51 298.296 1055.06 295.31 1058.03 291.763C1060.54 288.766 1062.22 284.656 1063.05 279.434C1063.87 274.299 1064.67 269.165 1065.47 264.031C1065.8 261.937 1066.7 261.596 1068.18 263.006L1083.45 277.649C1084.37 278.526 1085.56 279.042 1086.79 279.091C1088.02 279.14 1089.19 278.719 1090.06 277.913C1091.93 276.194 1093.94 274.674 1096.08 273.352C1098.04 272.14 1100.38 271.534 1103.12 271.534C1109.86 271.534 1117.24 271.534 1125.26 271.534C1126.2 271.533 1127.1 271.248 1127.82 270.726C1128.54 270.205 1129.03 269.476 1129.23 268.658L1132.4 255.899C1132.44 255.733 1132.51 255.575 1132.61 255.438C1132.71 255.301 1132.83 255.188 1132.97 255.109C1133.11 255.029 1133.27 254.984 1133.42 254.978C1133.57 254.972 1133.72 255.005 1133.86 255.073L1163.8 269.716C1164.24 269.927 1164.72 269.99 1165.17 269.893C1165.62 269.796 1166 269.545 1166.25 269.187C1168.5 265.904 1170.99 260.626 1173.72 253.354C1175.2 249.432 1176.41 249.74 1177.35 254.28C1179.03 262.411 1180.55 270.575 1181.92 278.773C1182 279.254 1182.23 279.693 1182.58 280.021C1182.93 280.35 1183.37 280.55 1183.83 280.591C1189.1 281.031 1193.63 280.547 1197.42 279.136C1201.21 277.726 1201.37 275.963 1197.91 273.848C1191.79 270.057 1190.5 266.069 1194.05 261.882C1195.59 260.053 1197.98 257.64 1201.22 254.643C1207.21 249.068 1213.68 250.424 1220.62 258.709C1223.35 261.926 1225.36 261.53 1226.64 257.519C1228.05 253.068 1229.81 249.829 1231.93 247.801C1232.26 247.474 1232.71 247.266 1233.21 247.207C1233.71 247.148 1234.23 247.24 1234.7 247.471C1266.99 263.226 1298.07 282.045 1327.95 303.926L1332.38 307.761C1370.7 338.346 1405.69 373.372 1437.35 412.838C1437.54 413.074 1437.78 413.264 1438.06 413.393C1438.33 413.522 1438.63 413.587 1438.94 413.584C1439.24 413.581 1439.54 413.509 1439.82 413.374C1440.09 413.24 1440.34 413.045 1440.53 412.805C1469.11 377.019 1500.3 344.571 1534.1 315.462C1584.79 271.831 1640.46 239.351 1701.12 218.02C1748.98 201.207 1799.31 193.318 1852.11 194.354C1860.27 194.508 1867.27 195.775 1873.13 198.155C1879.83 200.865 1886.17 204.347 1892.14 208.6C1892.6 208.932 1893.1 209.168 1893.61 209.294C1894.12 209.419 1894.64 209.431 1895.11 209.327C1899.41 208.467 1900.71 205.493 1899.02 200.402C1898.96 200.227 1898.94 200.04 1898.97 199.857C1898.99 199.675 1899.06 199.502 1899.17 199.355C1899.28 199.207 1899.42 199.09 1899.58 199.014C1899.75 198.937 1899.93 198.903 1900.11 198.915C1921.5 200.171 1941.56 205.801 1960.26 215.805C1965.77 218.758 1970.04 220.642 1973.06 221.458C1977.73 222.714 1982.41 223.419 1987.1 223.573C1987.99 223.61 1988.83 223.966 1989.47 224.575C1990.11 225.183 1990.5 226.003 1990.57 226.878C1991.57 237.632 1994.29 240.739 1998.74 236.199C1999.4 235.538 1999.83 234.516 1999.96 233.324C2000.42 229.049 2002.5 227.584 2006.18 228.928C2008.93 229.897 2010.56 230.459 2011.07 230.613C2018.07 232.685 2021.57 237.5 2021.55 245.058C2021.52 250.258 2023.36 251.041 2027.07 247.405C2031.36 243.196 2035.82 242.656 2040.45 245.785C2042.48 247.151 2043.55 247.867 2043.66 247.934C2070.08 263.535 2094.94 281.362 2118.23 301.414ZM1843.23 203.576C1843.02 203.233 1842.74 202.942 1842.39 202.72C1842.04 202.498 1841.64 202.35 1841.2 202.282C1840.77 202.215 1840.3 202.23 1839.84 202.328C1839.38 202.425 1838.93 202.603 1838.52 202.85C1837.68 203.35 1837.05 204.104 1836.75 204.947C1836.45 205.789 1836.52 206.652 1836.93 207.344C1837.14 207.686 1837.42 207.977 1837.77 208.199C1838.12 208.421 1838.52 208.57 1838.96 208.637C1839.4 208.704 1839.86 208.689 1840.32 208.591C1840.78 208.494 1841.23 208.316 1841.64 208.069C1842.48 207.569 1843.11 206.815 1843.41 205.972C1843.71 205.13 1843.64 204.268 1843.23 203.576ZM1978.76 235.007C1978.74 234.412 1978.37 233.838 1977.69 233.315C1977 232.793 1976 232.334 1974.76 231.963C1973.51 231.592 1972.04 231.317 1970.42 231.155C1968.8 230.992 1967.08 230.944 1965.34 231.014C1961.82 231.155 1958.48 231.767 1956.03 232.715C1953.58 233.663 1952.23 234.87 1952.28 236.07C1952.3 236.664 1952.67 237.239 1953.35 237.761C1954.04 238.284 1955.04 238.743 1956.28 239.114C1957.53 239.485 1959 239.759 1960.62 239.922C1962.23 240.085 1963.96 240.133 1965.7 240.063C1969.21 239.922 1972.56 239.31 1975.01 238.362C1977.46 237.414 1978.81 236.207 1978.76 235.007ZM962.605 253.982L953.68 245.157C953.3 244.78 952.797 244.55 952.259 244.507C951.721 244.465 951.183 244.613 950.739 244.926L937.088 254.412C936.921 254.529 936.789 254.687 936.702 254.873C936.616 255.06 936.578 255.269 936.591 255.485C936.603 255.701 936.667 255.917 936.777 256.115C936.886 256.314 937.038 256.489 937.22 256.627C945.814 263.171 954.011 263.954 961.812 258.973C962.236 258.702 962.6 258.345 962.877 257.929C963.155 257.513 963.338 257.049 963.414 256.57C963.491 256.091 963.457 255.61 963.317 255.162C963.177 254.714 962.934 254.311 962.605 253.982ZM908.033 266.344C904.265 292.435 910.127 295.972 925.618 276.955C926.298 276.104 926.64 275.056 926.576 274.013C925.849 261.497 920.219 258.125 909.686 263.898C909.245 264.146 908.866 264.495 908.579 264.919C908.292 265.344 908.106 265.831 908.033 266.344ZM1635.45 278.971C1635.74 278.523 1635.94 278.018 1636.03 277.488C1636.12 276.958 1636.09 276.414 1635.96 275.892C1635.83 275.369 1635.59 274.88 1635.25 274.454C1634.92 274.028 1634.5 273.675 1634.02 273.418C1628.54 270.509 1621.95 270.322 1614.26 272.856C1613.75 273.02 1613.29 273.292 1612.91 273.653C1612.52 274.013 1612.23 274.452 1612.04 274.938C1609.99 280.117 1610.4 285.13 1613.27 289.978C1613.53 290.425 1613.9 290.801 1614.34 291.072C1614.79 291.343 1615.29 291.501 1615.81 291.531C1623.08 291.884 1629.63 287.697 1635.45 278.971ZM980.612 279.95C981.003 279.889 981.374 279.731 981.705 279.486C982.036 279.241 982.32 278.913 982.541 278.521C982.763 278.129 982.917 277.681 982.995 277.202C983.073 276.723 983.073 276.222 982.996 275.729C982.84 274.733 982.377 273.827 981.71 273.21C981.042 272.593 980.224 272.316 979.436 272.439C979.046 272.5 978.675 272.658 978.344 272.903C978.013 273.148 977.728 273.476 977.507 273.868C977.286 274.26 977.132 274.708 977.054 275.187C976.976 275.666 976.975 276.167 977.053 276.66C977.209 277.656 977.671 278.562 978.339 279.179C979.006 279.796 979.824 280.073 980.612 279.95ZM2103.28 349.871C2104.77 349.884 2106.21 349.005 2107.27 347.427C2108.34 345.849 2108.95 343.702 2108.97 341.458C2108.99 339.214 2108.42 337.057 2107.38 335.461C2106.34 333.865 2104.92 332.961 2103.43 332.948C2101.94 332.935 2100.5 333.814 2099.43 335.392C2098.36 336.969 2097.75 339.116 2097.73 341.36C2097.71 343.604 2098.29 345.762 2099.33 347.358C2100.37 348.954 2101.79 349.858 2103.28 349.871ZM2138.56 466.881C2134.9 481.381 2139.97 485.964 2153.76 480.631C2154.29 480.429 2154.76 480.105 2155.13 479.685C2155.51 479.266 2155.78 478.763 2155.93 478.218C2156.07 477.673 2156.09 477.101 2155.97 476.55C2155.85 475.998 2155.6 475.483 2155.25 475.045C2151.9 470.969 2147.6 467.652 2142.36 465.096C2141.99 464.922 2141.6 464.831 2141.2 464.83C2140.79 464.828 2140.4 464.916 2140.03 465.087C2139.67 465.257 2139.35 465.507 2139.09 465.817C2138.84 466.128 2138.65 466.491 2138.56 466.881ZM2168.87 495.572L2159.15 505.917C2158.79 506.307 2158.54 506.768 2158.43 507.24C2158.32 507.712 2158.37 508.173 2158.55 508.562C2161.26 514.181 2165.42 518.335 2171.01 521.023C2171.47 521.241 2171.97 521.325 2172.48 521.267C2172.98 521.208 2173.46 521.009 2173.86 520.692C2181.35 514.743 2187.86 507.471 2193.39 498.877C2193.68 498.434 2193.85 497.926 2193.91 497.401C2193.96 496.877 2193.88 496.355 2193.68 495.888C2193.49 495.42 2193.18 495.023 2192.78 494.736C2192.39 494.448 2191.93 494.281 2191.44 494.249L2173.36 493.225C2172.68 493.186 2171.92 493.379 2171.14 493.787C2170.36 494.195 2169.58 494.807 2168.87 495.572ZM1707.24 542.508C1707.02 545.703 1707.88 548.612 1709.82 551.234C1710.05 551.546 1710.42 551.748 1710.86 551.802C1711.29 551.857 1711.77 551.761 1712.2 551.532L1734.51 539.566C1736.8 538.332 1736.79 537.23 1734.47 536.261C1724.82 532.272 1717.18 532.008 1711.53 535.467C1708.91 537.076 1707.48 539.423 1707.24 542.508ZM1990.21 568.453C1990.21 567.794 1989.98 567.139 1989.54 566.528C1989.09 565.917 1988.43 565.361 1987.6 564.891C1986.77 564.422 1985.78 564.048 1984.7 563.792C1983.61 563.536 1982.45 563.402 1981.27 563.398C1978.89 563.389 1976.61 563.911 1974.93 564.847C1973.25 565.783 1972.3 567.058 1972.3 568.391C1972.29 569.05 1972.52 569.704 1972.97 570.316C1973.42 570.927 1974.08 571.483 1974.91 571.952C1975.74 572.422 1976.72 572.795 1977.81 573.052C1978.89 573.308 1980.06 573.442 1981.24 573.446C1983.61 573.454 1985.89 572.933 1987.57 571.997C1989.26 571.06 1990.21 569.786 1990.21 568.453ZM2010.35 569.227C2010.44 568.655 2010.01 568.031 2009.16 567.494C2008.31 566.957 2007.11 566.55 2005.83 566.362C2005.19 566.27 2004.56 566.234 2003.95 566.256C2003.35 566.279 2002.79 566.36 2002.31 566.495C2001.84 566.63 2001.44 566.816 2001.16 567.043C2000.88 567.269 2000.71 567.532 2000.67 567.815C2000.59 568.388 2001.02 569.011 2001.87 569.548C2002.72 570.085 2003.92 570.492 2005.2 570.68C2005.83 570.773 2006.47 570.809 2007.08 570.786C2007.68 570.763 2008.24 570.682 2008.71 570.547C2009.19 570.412 2009.58 570.226 2009.87 570C2010.15 569.773 2010.31 569.511 2010.35 569.227ZM2049.41 567.854C2049.36 567.572 2049.2 567.312 2048.93 567.089C2048.66 566.867 2048.28 566.686 2047.83 566.557C2047.37 566.429 2046.85 566.355 2046.28 566.34C2045.71 566.324 2045.11 566.368 2044.52 566.469C2043.92 566.57 2043.34 566.725 2042.81 566.926C2042.28 567.127 2041.81 567.37 2041.42 567.641C2041.03 567.912 2040.74 568.205 2040.56 568.505C2040.37 568.804 2040.3 569.104 2040.35 569.386C2040.4 569.669 2040.56 569.929 2040.84 570.151C2041.11 570.374 2041.48 570.554 2041.94 570.683C2042.39 570.812 2042.92 570.886 2043.48 570.901C2044.05 570.916 2044.65 570.872 2045.25 570.771C2045.84 570.671 2046.42 570.515 2046.95 570.314C2047.48 570.113 2047.95 569.87 2048.34 569.599C2048.73 569.329 2049.02 569.035 2049.21 568.736C2049.39 568.436 2049.46 568.136 2049.41 567.854ZM1931.11 578.523C1931.11 577.915 1930.87 577.315 1930.43 576.756C1929.98 576.197 1929.32 575.69 1928.5 575.264C1927.67 574.839 1926.7 574.503 1925.62 574.276C1924.54 574.049 1923.39 573.936 1922.23 573.942C1921.06 573.948 1919.91 574.074 1918.84 574.312C1917.77 574.55 1916.79 574.896 1915.97 575.33C1915.15 575.764 1914.5 576.277 1914.06 576.841C1913.62 577.405 1913.39 578.008 1913.39 578.616C1913.4 579.223 1913.63 579.824 1914.08 580.383C1914.53 580.942 1915.18 581.449 1916.01 581.874C1916.83 582.3 1917.81 582.635 1918.88 582.862C1919.96 583.089 1921.11 583.203 1922.28 583.197C1923.44 583.191 1924.59 583.065 1925.66 582.827C1926.74 582.589 1927.71 582.243 1928.53 581.809C1929.35 581.375 1930 580.861 1930.45 580.298C1930.89 579.734 1931.11 579.131 1931.11 578.523ZM2069.7 609.309L2068.65 589.047C2068.62 588.546 2068.43 588.064 2068.11 587.668C2067.79 587.272 2067.36 586.98 2066.86 586.833C2062.48 585.555 2058.73 587.119 2055.62 591.526C2048.79 601.222 2047.47 611.039 2051.66 620.977C2051.85 621.453 2052.17 621.873 2052.58 622.196C2052.99 622.52 2053.48 622.738 2054 622.828C2068.33 625.252 2082.65 624.646 2096.97 621.01C2104.75 619.049 2104.71 617.341 2096.84 615.887L2071.29 611.226C2070.87 611.15 2070.48 610.92 2070.2 610.573C2069.91 610.225 2069.73 609.78 2069.7 609.309ZM2110.53 691.514C2116.96 693.233 2123.45 693.607 2129.99 692.638C2131.12 692.469 2132.1 691.924 2132.74 691.117C2135.38 687.812 2134.38 685.851 2129.73 685.234C2123.01 684.308 2116.54 685.013 2110.33 687.349C2106.03 688.936 2106.1 690.324 2110.53 691.514ZM2159.83 783.68C2160.18 783.876 2160.58 783.974 2161 783.969C2161.43 783.963 2161.88 783.854 2162.32 783.648C2162.76 783.441 2163.18 783.142 2163.57 782.766C2163.96 782.39 2164.3 781.946 2164.57 781.458C2165.13 780.473 2165.38 779.371 2165.28 778.394C2165.17 777.417 2164.72 776.646 2164.02 776.25C2163.67 776.054 2163.27 775.956 2162.84 775.962C2162.42 775.968 2161.97 776.077 2161.53 776.283C2161.09 776.489 2160.66 776.789 2160.28 777.165C2159.89 777.54 2159.55 777.985 2159.27 778.473C2158.72 779.458 2158.47 780.56 2158.57 781.537C2158.67 782.513 2159.13 783.284 2159.83 783.68ZM1980.19 969.421C1979.93 968.835 1979.3 968.441 1978.44 968.326C1977.58 968.211 1976.55 968.383 1975.59 968.806C1974.63 969.229 1973.8 969.867 1973.31 970.581C1972.81 971.294 1972.67 972.024 1972.93 972.61C1973.18 973.196 1973.81 973.59 1974.68 973.705C1975.54 973.82 1976.57 973.648 1977.53 973.225C1978.49 972.802 1979.31 972.164 1979.81 971.45C1980.31 970.737 1980.45 970.007 1980.19 969.421ZM2023.59 1014.85C2023.92 1015.05 2024.3 1015.16 2024.7 1015.19C2025.09 1015.22 2025.51 1015.16 2025.91 1015.01C2026.31 1014.87 2026.69 1014.64 2027.04 1014.35C2027.38 1014.05 2027.68 1013.69 2027.92 1013.29C2028.15 1012.89 2028.32 1012.46 2028.41 1012.01C2028.5 1011.57 2028.51 1011.12 2028.44 1010.7C2028.37 1010.28 2028.22 1009.89 2028 1009.56C2027.79 1009.22 2027.5 1008.95 2027.17 1008.75C2026.84 1008.56 2026.46 1008.44 2026.06 1008.42C2025.66 1008.39 2025.25 1008.45 2024.85 1008.59C2024.45 1008.74 2024.06 1008.97 2023.72 1009.26C2023.38 1009.56 2023.08 1009.91 2022.84 1010.32C2022.61 1010.72 2022.44 1011.15 2022.35 1011.6C2022.26 1012.04 2022.25 1012.49 2022.32 1012.91C2022.39 1013.33 2022.54 1013.72 2022.75 1014.05C2022.97 1014.39 2023.26 1014.66 2023.59 1014.85ZM1232.22 1036.46C1228.68 1043.82 1222.14 1047.26 1212.62 1046.77C1208.81 1046.58 1205.49 1047.76 1202.67 1050.31C1197.14 1055.36 1198.51 1057.9 1206.77 1057.95C1214.62 1058.01 1223.66 1057.11 1233.91 1055.24C1234.68 1055.1 1235.42 1054.82 1236.08 1054.42C1236.74 1054.02 1237.3 1053.51 1237.75 1052.91C1238.19 1052.31 1238.5 1051.64 1238.66 1050.94C1238.82 1050.24 1238.82 1049.52 1238.67 1048.82L1235.96 1036.76C1235.12 1033.08 1233.88 1032.98 1232.22 1036.46ZM1934.85 1055.47C1935.51 1055.85 1936.39 1055.77 1937.31 1055.25C1938.23 1054.73 1939.1 1053.81 1939.75 1052.7C1940.07 1052.14 1940.32 1051.56 1940.5 1050.98C1940.67 1050.4 1940.76 1049.83 1940.75 1049.31C1940.75 1048.78 1940.66 1048.32 1940.48 1047.93C1940.31 1047.55 1940.05 1047.25 1939.73 1047.07C1939.08 1046.69 1938.19 1046.77 1937.28 1047.29C1936.36 1047.81 1935.48 1048.73 1934.83 1049.84C1934.51 1050.4 1934.26 1050.98 1934.09 1051.56C1933.91 1052.14 1933.83 1052.71 1933.83 1053.23C1933.83 1053.76 1933.92 1054.22 1934.1 1054.61C1934.27 1054.99 1934.53 1055.29 1934.85 1055.47ZM1744.82 1110.47C1745.35 1112.91 1746.1 1115.28 1747.07 1117.58C1748.13 1120.11 1749.98 1122.4 1752.62 1124.45C1759.3 1129.63 1766.37 1134.65 1773.84 1139.52C1774.12 1139.7 1774.36 1139.94 1774.54 1140.21C1774.73 1140.49 1774.86 1140.79 1774.92 1141.11C1774.98 1141.42 1774.97 1141.74 1774.89 1142.04C1774.81 1142.35 1774.67 1142.63 1774.47 1142.86L1761.21 1157.8C1757.73 1161.75 1758.2 1164.74 1762.6 1166.79C1766.04 1168.4 1770.01 1168.62 1774.5 1167.45C1787.75 1164.02 1795.33 1156.59 1797.24 1145.18C1798.06 1140.44 1800.81 1137.57 1805.51 1136.58C1811.32 1135.35 1814.74 1132.74 1815.75 1128.75C1816.94 1124.05 1817.77 1121.45 1818.23 1120.95C1821.03 1117.8 1825.17 1116.72 1830.66 1117.71C1835.22 1118.52 1839.84 1118.3 1844.51 1117.05C1848.87 1115.86 1851.96 1114.07 1853.76 1111.69C1856.52 1108.01 1855.64 1103.75 1851.12 1098.9C1846.29 1093.74 1841.95 1093.68 1838.1 1098.7C1833.14 1105.16 1824.57 1107.28 1812.38 1105.08C1809.22 1104.51 1806.38 1102.75 1804.45 1100.16C1801.5 1096.17 1797.24 1095.15 1791.69 1097.12C1788.8 1098.13 1785.77 1100.63 1782.6 1104.62C1779.82 1108.12 1776.77 1111.45 1773.44 1114.6C1772.82 1115.19 1772.01 1115.55 1771.16 1115.63C1770.31 1115.72 1769.45 1115.52 1768.72 1115.06C1756.16 1107.13 1752.71 1095.91 1758.37 1081.41C1758.55 1080.95 1758.83 1080.51 1759.19 1080.14C1759.56 1079.77 1760 1079.48 1760.49 1079.27C1767.8 1076.2 1774.96 1072.81 1781.97 1069.09C1784.55 1067.7 1786.84 1067.27 1788.85 1067.8C1791.23 1068.46 1793.4 1069.74 1795.36 1071.63C1798.25 1074.45 1801.21 1074.53 1804.25 1071.86L1813.31 1063.83C1813.56 1063.61 1813.77 1063.35 1813.92 1063.06C1814.07 1062.77 1814.17 1062.47 1814.2 1062.16C1814.23 1061.85 1814.2 1061.55 1814.1 1061.27C1814 1061 1813.85 1060.75 1813.64 1060.56L1801.57 1049.09C1801.26 1048.8 1800.81 1048.67 1800.32 1048.74C1799.82 1048.8 1799.31 1049.04 1798.9 1049.42C1792.73 1054.82 1785.5 1057.32 1777.21 1056.92C1772.59 1056.68 1770.21 1056.56 1770.07 1056.56C1764.65 1056.56 1759.23 1056.56 1753.81 1056.56C1751.08 1056.56 1748.6 1058.29 1746.37 1061.75C1745.8 1062.65 1745.05 1063.41 1744.13 1064.03C1738.29 1067.86 1737.59 1072.88 1742.04 1079.07C1746.12 1084.78 1745.36 1087.46 1739.76 1087.13C1727.31 1086.38 1714.82 1086.95 1702.28 1088.82C1697.3 1089.57 1697 1091.12 1701.39 1093.48L1713.58 1100.02C1714.05 1100.27 1714.44 1100.63 1714.73 1101.07C1715.02 1101.51 1715.2 1102.01 1715.25 1102.53C1715.3 1103.05 1715.22 1103.58 1715.02 1104.06C1714.81 1104.54 1714.49 1104.96 1714.08 1105.28C1709.1 1109.18 1709.07 1111.85 1713.98 1113.28C1720.35 1115.15 1724.99 1118.14 1727.9 1122.24C1731.2 1126.89 1733.84 1126.54 1735.8 1121.21C1737.56 1116.43 1740.03 1112.65 1743.2 1109.87C1743.33 1109.76 1743.49 1109.69 1743.66 1109.66C1743.83 1109.63 1744 1109.65 1744.16 1109.71C1744.33 1109.77 1744.47 1109.87 1744.59 1110C1744.7 1110.14 1744.78 1110.3 1744.82 1110.47ZM1457.72 1093.91C1464.46 1097.68 1471.14 1098.19 1477.75 1095.46C1478.31 1095.23 1478.83 1094.89 1479.26 1094.46C1479.7 1094.04 1480.03 1093.55 1480.26 1093.02C1480.48 1092.48 1480.58 1091.92 1480.55 1091.38C1480.52 1090.83 1480.37 1090.31 1480.09 1089.84L1468.23 1069.68C1468.12 1069.5 1467.98 1069.34 1467.8 1069.23C1467.62 1069.11 1467.41 1069.04 1467.19 1069.01C1466.98 1068.98 1466.75 1069 1466.53 1069.07C1466.3 1069.13 1466.1 1069.24 1465.91 1069.38C1459.81 1074.19 1455.85 1079.09 1454.05 1084.09C1452.48 1088.41 1453.71 1091.68 1457.72 1093.91ZM1549.74 1108.12C1554.63 1108.61 1558.28 1106.12 1560.68 1100.65C1562.26 1097.04 1561.67 1093.82 1558.89 1091C1553.49 1085.51 1548.17 1081.39 1542.93 1078.64C1540.97 1077.6 1539.19 1077.25 1537.61 1077.58C1534.48 1078.24 1533.9 1080.56 1535.89 1084.52C1538.88 1090.49 1541.71 1096.96 1544.35 1103.92C1544.78 1105.06 1545.51 1106.05 1546.46 1106.79C1547.41 1107.53 1548.54 1107.99 1549.74 1108.12ZM1497.42 1095.13C1498.56 1095.16 1499.68 1094.29 1500.53 1092.69C1501.39 1091.1 1501.9 1088.92 1501.97 1086.63C1502.01 1085.5 1501.93 1084.38 1501.74 1083.32C1501.56 1082.27 1501.27 1081.31 1500.9 1080.5C1500.52 1079.68 1500.07 1079.04 1499.56 1078.59C1499.05 1078.14 1498.5 1077.9 1497.93 1077.88C1496.79 1077.85 1495.68 1078.72 1494.82 1080.32C1493.97 1081.91 1493.45 1084.09 1493.38 1086.38C1493.35 1087.51 1493.43 1088.63 1493.61 1089.69C1493.8 1090.74 1494.08 1091.7 1494.46 1092.51C1494.83 1093.33 1495.29 1093.97 1495.8 1094.42C1496.31 1094.87 1496.86 1095.11 1497.42 1095.13ZM1596.27 1085.7C1597.05 1085.55 1597.71 1085 1598.12 1084.17C1598.52 1083.35 1598.64 1082.31 1598.43 1081.3C1598.34 1080.8 1598.16 1080.31 1597.92 1079.88C1597.68 1079.44 1597.39 1079.07 1597.04 1078.76C1596.7 1078.46 1596.33 1078.24 1595.93 1078.12C1595.54 1078 1595.14 1077.98 1594.76 1078.05C1593.98 1078.2 1593.32 1078.75 1592.92 1079.58C1592.51 1080.41 1592.4 1081.44 1592.6 1082.46C1592.7 1082.96 1592.87 1083.44 1593.11 1083.88C1593.35 1084.31 1593.65 1084.69 1593.99 1084.99C1594.33 1085.29 1594.71 1085.51 1595.1 1085.63C1595.49 1085.76 1595.89 1085.78 1596.27 1085.7ZM1783.99 1094.01C1786.39 1092.55 1785.95 1091.25 1782.67 1090.11C1782.14 1089.92 1781.58 1089.86 1781.07 1089.93C1780.55 1089.99 1780.09 1090.19 1779.72 1090.5C1778.29 1091.74 1778.72 1092.94 1781.01 1094.11C1781.48 1094.35 1782 1094.47 1782.52 1094.45C1783.04 1094.43 1783.55 1094.28 1783.99 1094.01ZM1463.2 1109.25C1448.88 1106.87 1434.47 1106.18 1419.97 1107.2C1411.86 1107.75 1404.17 1106.45 1396.9 1103.3C1395.97 1102.9 1395.15 1102.23 1394.42 1101.28C1390.03 1095.7 1385.3 1094.66 1380.2 1098.14C1379.57 1098.57 1379.03 1099.11 1378.61 1099.75C1378.2 1100.38 1377.91 1101.08 1377.78 1101.81C1377.65 1102.54 1377.68 1103.29 1377.85 1103.99C1378.03 1104.7 1378.36 1105.35 1378.82 1105.91L1398.45 1129.71C1399.02 1130.39 1399.83 1130.84 1400.74 1131C1401.66 1131.17 1402.63 1131.02 1403.51 1130.6C1408.93 1127.98 1413.3 1124.72 1416.63 1120.81C1417.48 1119.82 1418.54 1119.03 1419.73 1118.48C1420.92 1117.94 1422.22 1117.66 1423.54 1117.67C1438.99 1117.78 1452.27 1116.45 1463.4 1113.68C1470.41 1111.91 1470.34 1110.44 1463.2 1109.25ZM1330.46 1104.92C1322.83 1096.81 1316.11 1098.44 1310.3 1109.81C1309.98 1110.43 1309.81 1111.11 1309.8 1111.81C1309.8 1112.5 1309.96 1113.19 1310.27 1113.81C1310.58 1114.44 1311.04 1114.98 1311.6 1115.4C1312.16 1115.82 1312.81 1116.1 1313.5 1116.22C1326.68 1118.42 1339.99 1118.13 1353.43 1115.33C1353.73 1115.26 1354 1115.12 1354.23 1114.93C1354.46 1114.74 1354.65 1114.49 1354.76 1114.22C1354.88 1113.94 1354.94 1113.64 1354.92 1113.34C1354.9 1113.04 1354.81 1112.74 1354.65 1112.49C1351 1106.21 1346.8 1101.61 1342.06 1098.7C1341.61 1098.43 1341.1 1098.29 1340.6 1098.32C1340.1 1098.35 1339.64 1098.54 1339.28 1098.87L1332.64 1104.92C1332.33 1105.2 1331.92 1105.36 1331.51 1105.36C1331.1 1105.36 1330.73 1105.2 1330.46 1104.92ZM1905.45 1102.99C1904.74 1102.12 1903.87 1101.4 1902.89 1100.87C1901.91 1100.33 1900.83 1100 1899.71 1099.88C1898.6 1099.76 1897.47 1099.87 1896.4 1100.18C1895.32 1100.5 1894.32 1101.03 1893.45 1101.73L1890.06 1104.48C1889.19 1105.18 1888.47 1106.05 1887.94 1107.04C1887.4 1108.02 1887.07 1109.1 1886.95 1110.22C1886.83 1111.33 1886.94 1112.46 1887.25 1113.53C1887.57 1114.6 1888.1 1115.6 1888.8 1116.47L1895.29 1124.49C1896 1125.36 1896.87 1126.08 1897.85 1126.62C1898.84 1127.15 1899.92 1127.49 1901.03 1127.6C1902.14 1127.72 1903.27 1127.62 1904.34 1127.3C1905.42 1126.98 1906.42 1126.45 1907.29 1125.75L1910.68 1123C1911.55 1122.3 1912.27 1121.43 1912.81 1120.44C1913.34 1119.46 1913.67 1118.38 1913.79 1117.27C1913.91 1116.15 1913.81 1115.03 1913.49 1113.95C1913.17 1112.88 1912.64 1111.88 1911.94 1111.01L1905.45 1102.99ZM1508.34 1116.72C1509.01 1116.63 1509.58 1116.08 1509.95 1115.18C1510.31 1114.28 1510.43 1113.11 1510.29 1111.91C1510.21 1111.32 1510.08 1110.75 1509.88 1110.22C1509.69 1109.69 1509.45 1109.22 1509.16 1108.83C1508.88 1108.44 1508.57 1108.14 1508.24 1107.95C1507.91 1107.76 1507.57 1107.69 1507.24 1107.73C1506.58 1107.81 1506 1108.36 1505.64 1109.26C1505.27 1110.16 1505.15 1111.33 1505.3 1112.53C1505.37 1113.12 1505.51 1113.69 1505.7 1114.22C1505.89 1114.75 1506.14 1115.23 1506.42 1115.62C1506.7 1116 1507.02 1116.3 1507.35 1116.49C1507.68 1116.68 1508.02 1116.76 1508.34 1116.72ZM1939.06 1115.12C1939.82 1114.75 1940.39 1114.04 1940.62 1113.14C1940.86 1112.25 1940.75 1111.24 1940.31 1110.33C1939.88 1109.43 1939.16 1108.72 1938.31 1108.34C1937.46 1107.96 1936.56 1107.96 1935.79 1108.33C1935.02 1108.7 1934.46 1109.41 1934.23 1110.31C1933.99 1111.2 1934.1 1112.21 1934.53 1113.12C1934.97 1114.02 1935.69 1114.73 1936.54 1115.11C1937.38 1115.48 1938.29 1115.49 1939.06 1115.12ZM1871.38 1115.4C1871.97 1114.9 1872.25 1114.09 1872.16 1113.15C1872.08 1112.2 1871.63 1111.2 1870.92 1110.37C1870.21 1109.53 1869.3 1108.93 1868.38 1108.7C1867.46 1108.46 1866.61 1108.61 1866.03 1109.11C1865.44 1109.61 1865.16 1110.42 1865.25 1111.36C1865.33 1112.31 1865.78 1113.3 1866.49 1114.14C1867.2 1114.97 1868.11 1115.58 1869.03 1115.81C1869.95 1116.05 1870.8 1115.9 1871.38 1115.4ZM1686.78 1147.59C1690.3 1147.52 1693.71 1146.17 1696.99 1143.52C1711.89 1131.6 1709.07 1126.03 1688.53 1126.8C1683.77 1126.97 1679.69 1126.72 1676.3 1126.04C1675.07 1125.77 1671.56 1123.89 1665.79 1120.39C1662.2 1118.2 1658.21 1117.04 1653.82 1116.88C1648.84 1116.71 1648.08 1118.57 1651.54 1122.47C1657.01 1128.62 1662.21 1134.97 1667.14 1141.54C1669.61 1144.82 1672.74 1146.67 1676.53 1147.09C1680.23 1147.49 1683.65 1147.65 1686.78 1147.59ZM1458.21 1147.19C1463.9 1142.56 1469.47 1139.57 1474.94 1138.2C1477.05 1137.69 1478.48 1137.18 1479.23 1136.65C1481.04 1135.35 1481.56 1133.76 1480.79 1131.89C1480.15 1130.32 1478.76 1129.16 1476.62 1128.38C1470.1 1126.07 1463.39 1126.36 1456.49 1129.24C1455.93 1129.48 1455.46 1129.87 1455.14 1130.35C1454.82 1130.83 1454.67 1131.38 1454.71 1131.92L1455.67 1146.27C1455.8 1148.14 1456.65 1148.45 1458.21 1147.19ZM1570.26 1133.23C1570.35 1132.88 1570.34 1132.5 1570.23 1132.13C1570.12 1131.75 1569.9 1131.37 1569.6 1131.03C1569.3 1130.68 1568.91 1130.37 1568.47 1130.11C1568.02 1129.84 1567.53 1129.64 1567.01 1129.5C1565.96 1129.22 1564.87 1129.24 1564 1129.55C1563.12 1129.85 1562.52 1130.43 1562.33 1131.14C1562.24 1131.49 1562.25 1131.87 1562.36 1132.25C1562.48 1132.62 1562.69 1133 1562.99 1133.34C1563.3 1133.69 1563.68 1134 1564.13 1134.26C1564.57 1134.53 1565.07 1134.73 1565.59 1134.87C1566.64 1135.15 1567.72 1135.13 1568.6 1134.82C1569.47 1134.52 1570.07 1133.94 1570.26 1133.23ZM1737.68 1152.78C1730.69 1148.02 1727.46 1150.02 1727.96 1158.79C1728.4 1166.18 1733.59 1168.24 1743.53 1164.97C1744.01 1164.81 1744.45 1164.54 1744.81 1164.19C1745.18 1163.84 1745.46 1163.41 1745.64 1162.94C1745.83 1162.47 1745.9 1161.96 1745.87 1161.46C1745.84 1160.95 1745.69 1160.46 1745.45 1160.02C1744.26 1157.9 1741.67 1155.49 1737.68 1152.78ZM1689.75 1183.05C1694.47 1186.07 1697.27 1184.76 1698.15 1179.12C1698.61 1176.19 1697.99 1173.44 1696.3 1170.86C1693.17 1166.1 1688.89 1162.63 1683.47 1160.45C1683.03 1160.26 1682.53 1160.24 1682.07 1160.39C1681.61 1160.53 1681.22 1160.83 1680.96 1161.24C1676.38 1168.29 1677.18 1174.1 1683.37 1178.66C1685.55 1180.27 1687.68 1181.73 1689.75 1183.05ZM1376.67 1213.53L1405 1227.64C1405.42 1227.86 1405.93 1227.95 1406.46 1227.92C1406.99 1227.88 1407.53 1227.72 1408.04 1227.45C1417.05 1222.51 1422.4 1218.16 1424.1 1214.39C1425.93 1210.34 1424.77 1205.5 1420.63 1199.88C1420.43 1199.61 1420.18 1199.39 1419.88 1199.23C1419.59 1199.07 1419.26 1198.99 1418.93 1198.97C1418.59 1198.96 1418.26 1199.02 1417.95 1199.16C1417.65 1199.29 1417.38 1199.49 1417.16 1199.75C1408.41 1210.19 1399.38 1209.08 1390.05 1196.41C1389.13 1195.14 1388.72 1193.57 1388.9 1192.02C1389.09 1190.46 1389.85 1189.03 1391.05 1188.01C1391.8 1187.35 1392.78 1185.9 1393.99 1183.65C1394.91 1181.93 1395.43 1180.3 1395.54 1178.76C1396.11 1171.2 1391.18 1167.71 1380.73 1168.28C1379.27 1168.35 1377.88 1168.97 1376.87 1170.03C1375.86 1171.08 1375.3 1172.48 1375.31 1173.93L1375.54 1211.55C1375.55 1211.97 1375.65 1212.38 1375.85 1212.74C1376.05 1213.09 1376.33 1213.36 1376.67 1213.53ZM1745.84 1183.06C1745.87 1182.38 1745.68 1181.69 1745.29 1181.04C1744.9 1180.4 1744.3 1179.8 1743.55 1179.28C1742.8 1178.77 1741.89 1178.35 1740.89 1178.04C1739.89 1177.74 1738.81 1177.55 1737.71 1177.51C1735.49 1177.41 1733.34 1177.86 1731.73 1178.77C1730.13 1179.67 1729.19 1180.95 1729.13 1182.33C1729.1 1183.01 1729.28 1183.69 1729.68 1184.34C1730.07 1184.99 1730.66 1185.58 1731.41 1186.1C1732.17 1186.61 1733.07 1187.04 1734.08 1187.34C1735.08 1187.65 1736.16 1187.83 1737.26 1187.88C1739.47 1187.97 1741.62 1187.52 1743.23 1186.62C1744.84 1185.71 1745.78 1184.43 1745.84 1183.06ZM1327.75 1185.5C1327.67 1185.77 1327.66 1186.07 1327.72 1186.34C1327.79 1186.62 1327.92 1186.88 1328.11 1187.09C1328.3 1187.3 1328.54 1187.45 1328.81 1187.54C1329.07 1187.63 1329.36 1187.64 1329.63 1187.58C1332.54 1187.01 1333.9 1185.4 1333.7 1182.76C1333.65 1182.24 1333.42 1181.77 1333.06 1181.43C1332.71 1181.1 1332.24 1180.93 1331.78 1180.97C1329.91 1181.13 1328.56 1182.64 1327.75 1185.5ZM1294.54 1197C1295.22 1196.66 1295.67 1195.91 1295.78 1194.92C1295.89 1193.92 1295.65 1192.77 1295.12 1191.7C1294.6 1190.63 1293.82 1189.74 1292.96 1189.22C1292.1 1188.7 1291.24 1188.6 1290.55 1188.94C1289.87 1189.28 1289.43 1190.03 1289.32 1191.02C1289.21 1192.02 1289.44 1193.18 1289.97 1194.25C1290.5 1195.31 1291.28 1196.2 1292.13 1196.72C1292.99 1197.24 1293.85 1197.34 1294.54 1197ZM1325.94 1193.47C1325.85 1192.54 1325.39 1191.68 1324.67 1191.08C1323.95 1190.49 1323.01 1190.2 1322.08 1190.29L1321.29 1190.37C1320.36 1190.46 1319.5 1190.91 1318.9 1191.64C1318.3 1192.36 1318.02 1193.29 1318.11 1194.23L1318.91 1202.58C1319 1203.52 1319.46 1204.38 1320.19 1204.97C1320.91 1205.57 1321.84 1205.85 1322.77 1205.76L1323.56 1205.69C1324.5 1205.6 1325.36 1205.14 1325.95 1204.42C1326.55 1203.69 1326.83 1202.76 1326.74 1201.83L1325.94 1193.47ZM1536.79 1218.68C1537.3 1218.67 1537.79 1218.29 1538.25 1217.57C1538.7 1216.85 1539.11 1215.8 1539.43 1214.49C1539.76 1213.17 1540.01 1211.61 1540.16 1209.9C1540.31 1208.19 1540.36 1206.35 1540.32 1204.5C1540.22 1200.77 1539.71 1197.2 1538.91 1194.58C1538.11 1191.96 1537.08 1190.5 1536.05 1190.53C1535.54 1190.54 1535.04 1190.92 1534.58 1191.64C1534.13 1192.36 1533.73 1193.41 1533.4 1194.72C1533.07 1196.04 1532.82 1197.6 1532.67 1199.31C1532.52 1201.03 1532.47 1202.86 1532.52 1204.71C1532.62 1208.44 1533.12 1212.01 1533.92 1214.63C1534.72 1217.25 1535.75 1218.71 1536.79 1218.68ZM1773.28 1248.37C1773.99 1248.79 1774.82 1248.97 1775.64 1248.87C1776.46 1248.77 1777.22 1248.39 1777.81 1247.81C1783.12 1242.58 1789.38 1239.37 1796.58 1238.16C1800.75 1237.45 1804.76 1234.94 1808.61 1230.62C1812.32 1226.5 1815.57 1223.6 1818.36 1221.93C1822.97 1219.17 1826.78 1216.93 1829.8 1215.22C1835.44 1212.04 1835.08 1209.86 1828.71 1208.67C1817.43 1206.53 1809.08 1208.31 1803.66 1213.99C1803.26 1214.4 1802.79 1214.69 1802.3 1214.83C1801.81 1214.97 1801.34 1214.94 1800.95 1214.75L1784.02 1206.79C1783.57 1206.57 1783.08 1206.45 1782.59 1206.43C1782.09 1206.4 1781.61 1206.48 1781.17 1206.65C1780.73 1206.82 1780.34 1207.08 1780.04 1207.41C1779.74 1207.75 1779.53 1208.14 1779.43 1208.57C1777.64 1216 1774.48 1222.79 1769.94 1228.93C1763.95 1237.04 1765.06 1243.52 1773.28 1248.37ZM1575.88 1219.35L1585.44 1236.7C1585.68 1237.14 1586.05 1237.49 1586.49 1237.71C1586.94 1237.93 1587.43 1238 1587.91 1237.92C1600.87 1235.98 1604.21 1230.12 1597.93 1220.34C1595.46 1216.48 1593.48 1213.75 1591.98 1212.14C1589.51 1209.52 1586.44 1207.79 1582.76 1206.95C1574.85 1205.12 1569.61 1205.67 1567.06 1208.61C1560.25 1216.41 1562.39 1219.58 1573.47 1218.12C1573.95 1218.06 1574.43 1218.15 1574.86 1218.37C1575.29 1218.58 1575.65 1218.93 1575.88 1219.35ZM1481.32 1223.71C1485.57 1211.46 1481.19 1206.46 1468.19 1208.7C1467.77 1208.77 1467.37 1208.93 1467.02 1209.17C1466.67 1209.41 1466.38 1209.72 1466.16 1210.09C1465.94 1210.45 1465.81 1210.86 1465.76 1211.29C1465.72 1211.71 1465.77 1212.14 1465.91 1212.54C1467.74 1217.78 1470.79 1222.11 1475.07 1225.53C1475.56 1225.93 1476.15 1226.2 1476.77 1226.32C1477.39 1226.45 1478.04 1226.42 1478.65 1226.24C1479.26 1226.06 1479.82 1225.74 1480.29 1225.3C1480.75 1224.86 1481.1 1224.31 1481.32 1223.71ZM1621.76 1234.88C1622.43 1235.95 1623.35 1236.82 1624.45 1237.43C1625.55 1238.04 1626.79 1238.35 1628.04 1238.35C1657.9 1238.35 1685.5 1238.35 1710.84 1238.35C1718.47 1238.35 1724.45 1236.02 1728.79 1231.35C1729.14 1230.96 1729.58 1230.68 1730.05 1230.55C1730.51 1230.43 1730.98 1230.46 1731.37 1230.65L1742.47 1235.87C1742.9 1236.07 1743.37 1236.12 1743.79 1236.02C1744.21 1235.92 1744.56 1235.66 1744.75 1235.31C1746.74 1231.81 1747.44 1228.06 1746.87 1224.07C1746.81 1223.59 1746.62 1223.12 1746.3 1222.71C1745.99 1222.3 1745.57 1221.96 1745.08 1221.73C1739.95 1219.28 1734.86 1216.75 1729.81 1214.13C1729.64 1214.04 1727.73 1212.79 1724.1 1210.39C1719.4 1207.28 1713.88 1206.96 1707.54 1209.43C1702.2 1211.5 1697.73 1213.4 1694.12 1215.12C1689.36 1217.39 1684.81 1218.65 1680.46 1218.92C1674.38 1219.27 1668.31 1219.71 1662.25 1220.24C1661.77 1220.28 1661.29 1220.44 1660.85 1220.71C1660.42 1220.98 1660.04 1221.35 1659.74 1221.79C1655.97 1227.24 1652.29 1227.25 1648.7 1221.83C1648.03 1220.82 1647.19 1220.08 1646.29 1219.71C1639.13 1216.76 1631.9 1216.64 1624.6 1219.35C1623.56 1219.73 1622.7 1220.46 1622.19 1221.4C1619.44 1226.44 1619.29 1230.94 1621.76 1234.88ZM1507.71 1226.52C1509 1226.5 1510.23 1225.58 1511.11 1223.96C1512 1222.35 1512.48 1220.16 1512.45 1217.89C1512.44 1216.77 1512.3 1215.66 1512.04 1214.62C1511.78 1213.59 1511.41 1212.65 1510.94 1211.86C1510.48 1211.07 1509.94 1210.45 1509.34 1210.03C1508.75 1209.6 1508.11 1209.39 1507.47 1209.4C1506.19 1209.42 1504.96 1210.34 1504.07 1211.95C1503.19 1213.57 1502.7 1215.76 1502.74 1218.03C1502.75 1219.15 1502.89 1220.26 1503.15 1221.3C1503.41 1222.33 1503.78 1223.27 1504.24 1224.06C1504.71 1224.85 1505.25 1225.47 1505.85 1225.89C1506.44 1226.32 1507.08 1226.53 1507.71 1226.52ZM1560.48 1217.85C1560.27 1217.61 1559.97 1217.47 1559.59 1217.41C1559.22 1217.36 1558.77 1217.4 1558.28 1217.54C1557.79 1217.67 1557.27 1217.9 1556.74 1218.2C1556.21 1218.51 1555.69 1218.88 1555.21 1219.31C1554.23 1220.17 1553.45 1221.19 1553.05 1222.13C1552.65 1223.08 1552.66 1223.88 1553.08 1224.35C1553.28 1224.58 1553.58 1224.73 1553.96 1224.79C1554.34 1224.84 1554.78 1224.8 1555.27 1224.66C1555.76 1224.53 1556.28 1224.3 1556.81 1224C1557.34 1223.69 1557.86 1223.31 1558.35 1222.89C1559.33 1222.03 1560.11 1221.01 1560.5 1220.07C1560.9 1219.12 1560.89 1218.32 1560.48 1217.85ZM1307.62 1429.04C1312.07 1430.3 1316.91 1429.58 1322.13 1426.89C1322.61 1426.64 1323.05 1426.29 1323.39 1425.87C1323.73 1425.45 1323.97 1424.97 1324.09 1424.48C1324.21 1423.98 1324.21 1423.47 1324.09 1423C1323.97 1422.53 1323.73 1422.11 1323.39 1421.77L1311.09 1409.7C1310.05 1408.67 1309.4 1408.91 1309.14 1410.43L1306.2 1426.96C1306.12 1427.4 1306.22 1427.86 1306.48 1428.25C1306.74 1428.63 1307.15 1428.92 1307.62 1429.04Z" fill="#0D85CB"/>
</svg>
